<svg width="371" height="384" viewBox="0 0 371 384" fill="none" xmlns="http://www.w3.org/2000/svg">
<g clip-path="url(#clip0)">
<path d="M41 383.6C39 383.6 37 383.6 35 383.6C27 382.9 23.4 378.1 22.6 370.6C22.5 369.4 22.1 368.3 21.9 367.2C19.7 356.2 19.7 345 17.2 334.1C8.1 295.2 5.3 255.9 8 216.1C8.7 205.8 10 195.5 11 185.3C13.5 159.3 16.2 133.3 18.6 107.2C19.9 93 22.4 78.8 19.9 64.4C17.9 52.8 16.5 41 15.8 29.2C15.4 22.9 14.7 22.4 8.4 24.2C5.4 25 2.3 25.8 0 22.5C0 21.5 0 20.5 0 19.5C0.5 15.5 3.4 14.1 6.9 13.6C16.8 12.2 26.7 10.7 36.6 9.59999C53.5 7.79999 70.4 6.19999 87.3 4.69999C105.2 3.19999 122.9 -0.400013 141 -1.29938e-05C163.1 0.599987 185.3 0.799987 207.4 1.39999C238.7 2.09999 270 1.69999 301.3 3.69999C313.5 4.49999 326 3.99999 337.7 8.49999C349.9 13.2 361 19.3 360.3 35.1C360.3 35.6 360.5 36.1 360.6 36.6C362.4 50.4 366.9 64 364.9 78.1C362.9 91.9 365.2 105.3 366.7 118.8C368.2 132.5 371.9 146.1 369.9 160C367.6 175.7 367.2 191.5 367.6 207.4C367.8 214.3 367 221 365.6 227.7C358.3 263 352.8 298.4 353.5 334.6C353.8 349.3 353.5 349 339.4 353C308.2 361.8 276.3 366.6 244 368.3C226.7 369.2 209.3 368.9 192.1 370.3C165.2 372.5 138.5 376 111.6 378.5C97.4 379.8 83 378 68.7 380.3C59.6 381.9 50.3 382.5 41 383.6ZM352.9 85.9C351.6 74.5 354.7 63.6 351.9 52.9C350.2 46.2 346.5 39.9 346.2 32.8C346 26.4 342.6 22.3 337.3 19.4C334.2 17.7 331.1 16.3 327.7 15.4C316.4 12.3 304.7 10.9 293.1 11C264.3 11.2 235.5 9.29999 206.7 7.89999C186.6 6.89999 166.4 4.99999 146.3 6.89999C108 10.4 69.8 14.7 31.5 18.6C28.9 18.9 27.9 19.6 27.6 22.5C26.6 36 27.1 49.4 29.4 62.8C30.4 68.5 31.5 74.2 31 80.1C29.1 100.5 27.5 120.9 25.8 141.3C23.6 166.2 21.5 191.1 19.2 215.9C17.8 231.5 16.3 247.2 17.4 262.8C19.6 295.2 25.8 327.1 31.8 359C33.4 367.6 38.8 370.9 46.2 372.5C49.7 373.3 53.5 373.1 57.1 373.1C70.4 373 83.6 369.8 96.9 370.2C111.5 370.7 125.8 368.5 140.2 367.1C157.1 365.4 173.9 362.8 190.9 362C221.8 360.6 252.8 361.2 283.4 355.7C298.8 353 314.3 351.2 329.3 346.5C338.2 343.7 341.4 337.7 341.3 329.8C341 306.1 346.6 283.2 349.5 260C352 240 356.6 220.3 355.5 200C354.8 188 356.4 176.1 357.6 164.1C358.6 154.3 359.8 144.3 357.3 134.8C353.3 118.5 351.6 102.1 352.9 85.9Z" fill="#CE0E30"/>
<path d="M145.1 152C147.3 155.8 151.2 156.6 154.9 157.4C187.2 164.5 207.9 192.4 205.4 225.6C204.5 236.9 201 247 194 256C191.3 259.5 189.8 263.5 187.7 267.3C184.8 272.6 180.8 276.4 175.1 278.8C158.3 285.9 141.2 292.5 122.7 291.7C105.8 290.9 89.5 286.8 75.6 276.2C64.6 267.8 54.3 258.6 45.6 247.8C40.8 241.9 37.6 235.6 38.6 227.7C38.8 226.2 38.8 224.7 38.6 223.2C36 204 47.7 191.7 59.9 179.8C68.7 171.2 78.9 164.2 89.1 157.2C87.8 154.9 86 153.3 84.2 152C72.2 143.3 65.3 130.7 58.4 118.1C52.2 106.7 54.3 94.8 57.6 83.5C63.7 62.3 76.8 45.7 95.3 33.6C107.8 25.5 121.8 25.6 135.8 26.3C136.8 26.3 137.7 26.8 138.6 27.3C156.9 36.1 172.9 47.6 183.4 65.6C184.3 67.2 185.3 68.7 186.3 70.3C192 79.4 193.5 88.6 190.3 99.3C186.9 110.7 182.3 121.4 176.4 131.6C172.6 138.1 166.4 141.7 159.8 144.7C154.8 146.8 149.5 148.4 145.1 152ZM127.3 167.3C117.7 167.3 109.9 167.1 102.2 169C83.6 173.5 71.2 186.1 60.1 200.8C49.9 214.1 51.1 227.4 58.6 240.9C67.7 257.2 81.6 268.6 98.7 275.6C118.8 283.8 138.9 280.4 158.5 273C178.9 265.3 186.3 247.7 190.7 228.7C194.4 212.6 186.6 198.9 178.6 185.6C174.6 179 168.9 174.8 161.5 172.6C149.7 168.9 137.8 166.4 127.3 167.3ZM123.7 37.1C113.3 36.9 104.2 40.5 96.8 47.4C84.1 59.4 75.8 74.2 69.8 90.5C69.2 92.2 68.9 94.1 68.9 95.9C68.8 112.9 75.3 127 88.3 137.9C95.6 144 104.4 147.7 113.8 145.1C125 142.1 136 138.3 147.4 136C162.1 133 177.8 105.7 178.4 90.9C178.9 77.5 172.9 67.2 164.3 57.9C153.2 46.2 140.3 38 123.7 37.1Z" fill="#CE0E30"/>
<path d="M334.6 149.5C334.1 168.9 333.5 184.4 330.1 199.6C325.9 218.5 315.2 232.5 298.3 241.5C287.5 247.3 275.8 245.6 264.6 242.8C240.2 236.7 224.9 220.2 215.1 197.9C208.5 182.7 205.9 166.6 205.6 150.2C205.4 137.4 204.5 124.6 207.9 111.9C215.8 83 239.5 63.7 269.5 62.1C271.3 62 273.2 61.9 275 61.6C279.3 60.8 282.5 62.4 284.7 66.1C288.4 72.5 293.6 76.1 301.1 76.7C305.3 77 308.4 79.9 311.4 82.4C320.2 89.8 326.6 98.8 329.1 110.5C332.4 124.7 335.8 138.7 334.6 149.5ZM244.6 83.8C234.9 88.5 229.8 96.7 226.1 105.9C217.7 127.1 218.6 148.9 222.6 170.8C225.6 187.5 231 203.3 242.1 216.7C260.1 238.5 301.4 238.4 313.9 207.7C315.7 203.2 317.2 198.7 318.2 193.9C322.3 174.6 321.9 155.1 320.8 135.7C320.2 124.2 317.3 113 311.9 102.7C308.2 95.6 303.2 89.7 295.1 87.2C292.2 86.3 288.9 85.5 286.4 87.1C283.1 89.2 279.8 89.3 276.4 88.5C270.7 87.1 266 88.8 261.4 91.9C259.2 93.4 257 94.9 254.6 96.1C249.4 98.6 243.7 94.9 243.8 89.1C243.7 87.4 244.2 85.8 244.6 83.8Z" fill="#CE0E30"/>
<path d="M193.2 318.1C196.9 320.3 200.9 320.4 204.9 320.4C208.8 320.4 212.6 320.7 216 322.7C219.4 324.7 220.5 327.9 218.7 331.3C217 334.7 214 335.9 210.3 333.8C206.5 331.7 202.3 331.6 198.2 331.6C193.2 331.6 188.2 331.6 183.6 329.2C180.6 327.6 179.7 330.2 178.6 331.8C176.6 334.6 174.4 336.5 170.7 335.8C166.8 335.1 164.4 333.4 164.6 328.9C164.8 323.7 164.5 318.6 164.7 313.4C165.1 302.6 170.9 296.5 181.6 295.5C185.2 295.2 188.9 295.1 192.6 295.4C199.3 295.9 202.3 300.9 199.6 307C197.9 310.7 195.5 314.1 193.2 318.1ZM183.3 312.3C184.6 312.3 186.1 311.5 186.2 308.9C186.2 307.2 185.5 305.5 183.9 305.9C181.6 306.4 180.8 308.7 180.2 310.8C179.6 312.6 181.2 312.3 183.3 312.3Z" fill="#CE0E30"/>
<path d="M232.6 290.2C239.4 289.4 246.2 291.6 252.6 295.7C259 299.7 261.8 306 263.3 313C263.7 314.8 263.5 316.6 262.9 318.4C260.8 324.2 242.5 331.4 236.5 325.8C230.6 320.3 225.3 314.4 221.8 307.2C219.6 302.7 220.5 297.8 221.3 293C221.6 291.1 222.9 290.2 224.9 290.3C227.1 290.2 229.4 290.2 232.6 290.2ZM245.8 312.7C246.7 312.6 247.9 312.6 248.4 311.2C248.8 310 248.8 308.8 248 307.9C245.6 305.2 242.5 303.8 239 303.1C237.9 302.9 237.1 303.2 237.1 304.6C237.1 307.3 242.8 312.8 245.8 312.7Z" fill="#CE0E30"/>
<path d="M105.6 331.8C105.6 324.1 113.2 314.2 121.3 311.9C126.7 310.3 132.1 308.8 137.5 307C140.6 305.9 144.3 305.2 147 307.7C149.6 310.2 148.2 313.6 147.7 316.7C147.6 317.2 147.3 317.6 147.2 318.1C146 333.6 135.4 340.5 122.5 345.3C113.7 348.5 105.6 342.1 105.6 331.8ZM131.2 320.4C127.1 321.3 125.1 323.7 123.5 326.4C122.8 327.5 122.2 329.1 123.4 330C124.9 331.2 126.2 329.8 127.1 328.8C129.1 326.6 130.4 324 131.2 320.4Z" fill="#CE0E30"/>
<path d="M75.8 338.9C72.5 338.7 68.8 338.3 65.2 336.6C61 334.6 59.4 331.4 61 327.9C62.9 323.9 66.2 325.1 69.2 326C78.1 328.8 82.7 326.8 86.3 318.6C87.8 315.2 87.1 313.1 83.6 311.5C75.5 307.8 73.5 305.2 74.7 300.4C75.6 296.7 79.5 295.5 87.7 296.1C92.5 296.4 97.3 296.7 101.8 298.7C108.7 301.7 110.1 306.5 105.6 312.5C102.5 316.7 100.5 321.5 97.7 325.8C91.8 335 85.1 339.1 75.8 338.9Z" fill="#CE0E30"/>
<path d="M285.4 299C285 301.2 284.4 304.3 284 307.4C283.4 312 283.3 316.6 284.2 321.3C285.4 327.6 283.6 330.6 279.4 330.9C274.4 331.3 270.6 327.5 270.6 321.9C270.6 313.9 270.6 305.9 270.6 298C270.6 292.4 272.5 290.3 277.2 290.2C282.4 290.1 285.3 292.9 285.4 299Z" fill="#CE0E30"/>
</g>
<defs>
<clipPath id="clip0">
<rect width="370.4" height="383.6" fill="white"/>
</clipPath>
</defs>
</svg>
